<svg id="Layer_6" data-name="Layer 6" xmlns="http://www.w3.org/2000/svg" xmlns:xlink="http://www.w3.org/1999/xlink" viewBox="0 0 131.4 131.4"><defs><style>.cls-1{fill:#eb2d34;}.cls-2{fill:#231f20;}.cls-3{fill:#0669aa;}.cls-4{fill:#ffcd05;}.cls-5,.cls-6{fill:none;stroke-miterlimit:10;stroke-width:2px;}.cls-5{stroke:#fff;}.cls-6{stroke:#231f20;}</style><symbol id="Arrow_3" data-name="Arrow 3" viewBox="0 0 23.18 21.53"><polygon class="cls-1" points="0 21.53 8.92 10.76 0 0 23.18 10.76 0 21.53"/><polygon class="cls-2" points="0 21.53 8.92 10.76 0 0 23.18 10.76 0 21.53"/></symbol></defs><title>logo</title><path class="cls-3" d="M149.74,85H85V20.34A64.7,64.7,0,0,1,149.74,85Z" transform="translate(-19.34 -19.34)"/><path class="cls-4" d="M85,85h64.7A64.7,64.7,0,0,1,85,149.74V85Z" transform="translate(-19.34 -19.34)"/><path class="cls-3" d="M85,85v64.7A64.7,64.7,0,0,1,20.34,85H85Z" transform="translate(-19.34 -19.34)"/><path class="cls-4" d="M85,20.34V85H20.34A64.7,64.7,0,0,1,85,20.34Z" transform="translate(-19.34 -19.34)"/><circle class="cls-5" cx="65.7" cy="65.7" r="64.7"/><polyline class="cls-5" points="65.7 1 65.7 65.7 65.7 130.4"/><polyline class="cls-5" points="1 65.7 65.7 65.7 130.4 65.7"/><line class="cls-6" x1="30.6" y1="58.31" x2="20.05" y2="58.31"/><path class="cls-6" d="M40.37,78.28c0-12.37,2.82-22.38,6.3-22.38" transform="translate(-19.34 -19.34)"/><path class="cls-6" d="M59.68,78.28c0-12.4-2.82-22.43-6.3-22.43" transform="translate(-19.34 -19.34)"/><circle class="cls-6" cx="30.63" cy="31.47" r="6.13"/><line class="cls-6" x1="30.6" y1="58.31" x2="41.32" y2="58.31"/><line class="cls-6" x1="49.27" y1="49.06" x2="40.71" y2="49.06"/><path class="cls-6" d="M61,69c0-9.87,2.23-17.86,5-17.86" transform="translate(-19.34 -19.34)"/><path class="cls-6" d="M76.33,69c0-9.9-2.23-17.9-5-17.9" transform="translate(-19.34 -19.34)"/><circle class="cls-6" cx="49.29" cy="27.79" r="4.86"/><line class="cls-6" x1="49.27" y1="49.06" x2="57.96" y2="49.06"/><rect class="cls-6" x="78.78" y="26.66" width="30.9" height="19.62" rx="2.81" ry="2.81"/><path class="cls-6" d="M79.5,50.14H109a0.94,0.94,0,0,1,.94.94v0.79a1.81,1.81,0,0,1-1.81,1.81H80.37a1.81,1.81,0,0,1-1.81-1.81V51.07a0.94,0.94,0,0,1,.94-0.94Z"/><line class="cls-6" x1="21.46" y1="81.14" x2="53.5" y2="81.14"/><line class="cls-6" x1="26.04" y1="106.27" x2="56.37" y2="106.27"/><path class="cls-6" d="M41.78,100c0,14.18,1.67,25.66,3.73,25.66" transform="translate(-19.34 -19.34)"/><path class="cls-6" d="M71.85,100c0,14.18,1.67,25.66,3.73,25.66" transform="translate(-19.34 -19.34)"/><line class="cls-6" x1="28.73" y1="91.03" x2="36.7" y2="99.37"/><line class="cls-6" x1="35.86" y1="98.84" x2="46.88" y2="87.36"/><path class="cls-6" d="M101.19,105a14.5,14.5,0,1,1-2.37,6.85" transform="translate(-19.34 -19.34)"/><use width="23.18" height="21.53" transform="matrix(-0.2, 0.29, -0.3, -0.2, 87.05, 85.04)" xlink:href="#Arrow_3"/></svg>